<svg id="Layer_2_copy" data-name="Layer 2 copy" xmlns="http://www.w3.org/2000/svg" viewBox="0 0 517.81 289.15"><defs><style>.cls-1{fill:#fff;}</style></defs><path class="cls-1" d="M385.08,159h15v15h-15Zm-22,15h15V159h-15Zm15-37h-15v15h15Zm107-23.3V41h-43v29.7l-1.25-1.26L382,10.61h0l-.06,0h0l0,0L340.45,52h0L153.28,239.16,150.1,236l-1.26-1.27-8.23-8.22L107.15,193l-1.26-1.27L85.09,171,69.25,155.14l84-84,25.14,25.14L222.16,140l33.92-34.31V40H212.21V69.47L153.34,10.6h0l-.06,0h0l-.06,0L94.35,69.47,71.51,92.32,8.68,155.14,39,185.42h0l2.47,2.47L66.58,213l43.75,43.75,43,43,19.05-19.05,9.14-9.14,86.12-86.12h0l30.29-30.28,84-84L407,96.25l58.89,58.89-84,84L378.73,236l-1.27-1.26-8.22-8.23L335.78,193l-1.27-1.26L313.71,171l-.7-.7-30.28,30.28L295.2,213,339,256.78l42.95,43L401,280.68l4.47-4.47,90.79-90.78h0l30.29-30.29Zm-350,60.3h15V159h-15Zm22,0h15V159h-15Zm243-37h-15v15h15Zm-250,0h-15v15h15Zm22,0h-15v15h15Z" transform="translate(-8.68 -10.58)"/></svg>