<svg id="Layer_1" data-name="Layer 1" xmlns="http://www.w3.org/2000/svg" viewBox="0 0 1985.71 1108.83"><defs><style>.cls-1{fill:#fff;}</style></defs><path class="cls-1" d="M1449.43,1018.5h57.51V1076h-57.51ZM1365.07,1076h57.52V1018.5h-57.52Zm57.52-141.87h-57.52v57.51h57.52Zm410.28-89.34V566.05H1668V679.93l-4.79-4.83L1437.62,449.52h-.23L1278.3,608.23h0L560.62,1325.87l-12.19-12.12-4.83-4.87L512,1277.36l-128.3-128.49-4.83-4.87-79.76-79.48-60.73-60.82L560.51,681.62,656.9,778,824.73,945.65,954.79,814.09V562.21H786.58v113L560.85,449.48h-.46L334.66,675.21l-87.58,87.62L6.17,1003.7l116.26,116.11h0l9.47,9.47,96.28,96.28,167.75,167.75,164.88,164.88,73.05-73,35-35.05,330.22-330.21h0l116.14-116.11,322.09-322.09,96.13,96.21,225.81,225.8L1437.2,1325.79l-12.12-12-4.87-4.83-31.52-31.56-128.3-128.49-4.87-4.83-79.75-79.52-2.68-2.69L1057,1177.94l47.82,47.62,167.94,167.87,164.69,164.88,73-73.24,17.14-17.14,348.13-348.08h0l116.14-116.15ZM490.83,1076h57.52V1018.5H490.83Zm84.36,0h57.52V1018.5H575.19Zm931.75-141.87h-57.51v57.51h57.51Zm-958.59,0H490.83v57.51h57.52Zm84.36,0H575.19v57.51h57.52Z" transform="translate(-6.17 -449.48)"/></svg>