<svg id="Layer_1" data-name="Layer 1" xmlns="http://www.w3.org/2000/svg" xmlns:xlink="http://www.w3.org/1999/xlink" viewBox="0 0 6625.94 1845.82"><defs><style>.cls-1{fill:#fff;}.cls-2{fill:#ede8da;}.cls-3{clip-path:url(#clip-path);}</style><clipPath id="clip-path"><path class="cls-1" d="M405,620.36V761.3a533.55,533.55,0,0,0-55.08-3.24c-111.78,0-196,76.14-196,189.54v328.86H0v-648H153.9v89.1c45.36-63.18,115-102.06,199.26-102.06A267.58,267.58,0,0,1,405,620.36Zm758.14,356.4H626.93c8.1,108.54,82.62,184.68,192.78,184.68,84.24,0,152.28-43.74,179.82-111.78h153.9c-38.88,140.94-163.62,239.76-333.72,239.76-200.88,0-351.54-142.56-351.54-337s150.66-337,349.92-337c197.64,0,343.44,139.32,346.68,333.72ZM639.89,866.6h356.4c-29.16-74.52-90.72-121.5-176.58-121.5C732.23,745.1,667.43,793.7,639.89,866.6ZM1262,1184.12c0-56.7,48.6-105.3,105.3-105.3s105.29,48.6,105.29,105.3-48.6,105.3-105.29,105.3S1262,1240.82,1262,1184.12Zm1061.08-34v126.36c-17.83,8.1-38.88,13-56.71,13-77.75,0-134.45-38.88-165.23-102.06-48.6,63.18-136.08,102.06-241.38,102.06-140.94,0-230-71.28-230-184.68s82.62-186.3,213.84-186.3h234.9v-47c0-81-64.8-126.36-147.42-126.36-84.24,0-147.42,43.74-147.42,121.5h-153.9c0-152.28,128-251.1,301.32-251.1,171.72,0,301.32,105.3,301.32,265.68v186.3c0,56.7,24.3,82.62,51.84,82.62ZM2078.42,1040v-14.58H1888.88c-59.94,0-98.82,29.16-98.82,74.52s42.12,74.52,108.54,74.52c90.72,0,160.38-51.86,179.82-134.48ZM2441.29,123h153.9V1276.46h-153.9ZM2809,123h153.9V1276.46H2809Zm955.82,505.42-416.34,1036.8h-162l153.9-377.46-267.3-659.34h163.62L3421.39,1108l178.2-479.52Z"/></clipPath></defs><path class="cls-2" d="M405,620.36V761.3a533.55,533.55,0,0,0-55.08-3.24c-111.78,0-196,76.14-196,189.54v328.86H0v-648H153.9v89.1c45.36-63.18,115-102.06,199.26-102.06A267.58,267.58,0,0,1,405,620.36Zm758.14,356.4H626.93c8.1,108.54,82.62,184.68,192.78,184.68,84.24,0,152.28-43.74,179.82-111.78h153.9c-38.88,140.94-163.62,239.76-333.72,239.76-200.88,0-351.54-142.56-351.54-337s150.66-337,349.92-337c197.64,0,343.44,139.32,346.68,333.72ZM639.89,866.6h356.4c-29.16-74.52-90.72-121.5-176.58-121.5C732.23,745.1,667.43,793.7,639.89,866.6ZM1262,1184.12c0-56.7,48.6-105.3,105.3-105.3s105.29,48.6,105.29,105.3-48.6,105.3-105.29,105.3S1262,1240.82,1262,1184.12Zm1061.08-34v126.36c-17.83,8.1-38.88,13-56.71,13-77.75,0-134.45-38.88-165.23-102.06-48.6,63.18-136.08,102.06-241.38,102.06-140.94,0-230-71.28-230-184.68s82.62-186.3,213.84-186.3h234.9v-47c0-81-64.8-126.36-147.42-126.36-84.24,0-147.42,43.74-147.42,121.5h-153.9c0-152.28,128-251.1,301.32-251.1,171.72,0,301.32,105.3,301.32,265.68v186.3c0,56.7,24.3,82.62,51.84,82.62ZM2078.42,1040v-14.58H1888.88c-59.94,0-98.82,29.16-98.82,74.52s42.12,74.52,108.54,74.52c90.72,0,160.38-51.86,179.82-134.48ZM2441.29,123h153.9V1276.46h-153.9ZM2809,123h153.9V1276.46H2809Zm955.82,505.42-416.34,1036.8h-162l153.9-377.46-267.3-659.34h163.62L3421.39,1108l178.2-479.52Z"/><path class="cls-1" d="M405,620.36V761.3a533.55,533.55,0,0,0-55.08-3.24c-111.78,0-196,76.14-196,189.54v328.86H0v-648H153.9v89.1c45.36-63.18,115-102.06,199.26-102.06A267.58,267.58,0,0,1,405,620.36Zm758.14,356.4H626.93c8.1,108.54,82.62,184.68,192.78,184.68,84.24,0,152.28-43.74,179.82-111.78h153.9c-38.88,140.94-163.62,239.76-333.72,239.76-200.88,0-351.54-142.56-351.54-337s150.66-337,349.92-337c197.64,0,343.44,139.32,346.68,333.72ZM639.89,866.6h356.4c-29.16-74.52-90.72-121.5-176.58-121.5C732.23,745.1,667.43,793.7,639.89,866.6ZM1262,1184.12c0-56.7,48.6-105.3,105.3-105.3s105.29,48.6,105.29,105.3-48.6,105.3-105.29,105.3S1262,1240.82,1262,1184.12Zm1061.08-34v126.36c-17.83,8.1-38.88,13-56.71,13-77.75,0-134.45-38.88-165.23-102.06-48.6,63.18-136.08,102.06-241.38,102.06-140.94,0-230-71.28-230-184.68s82.62-186.3,213.84-186.3h234.9v-47c0-81-64.8-126.36-147.42-126.36-84.24,0-147.42,43.74-147.42,121.5h-153.9c0-152.28,128-251.1,301.32-251.1,171.72,0,301.32,105.3,301.32,265.68v186.3c0,56.7,24.3,82.62,51.84,82.62ZM2078.42,1040v-14.58H1888.88c-59.94,0-98.82,29.16-98.82,74.52s42.12,74.52,108.54,74.52c90.72,0,160.38-51.86,179.82-134.48ZM2441.29,123h153.9V1276.46h-153.9ZM2809,123h153.9V1276.46H2809Zm955.82,505.42-416.34,1036.8h-162l153.9-377.46-267.3-659.34h163.62L3421.39,1108l178.2-479.52Z"/><g class="cls-3"><rect class="cls-1" x="1004.38" width="4267.18" height="1845.82"/></g><path class="cls-1" d="M5861.52,924.88h81.06v81h-81.06Zm-118.87,81h81.05v-81h-81.05ZM5823.7,806h-81.05v81h81.05Zm578.13-125.9V287.28H6169.52V447.76l-6.76-6.8L5844.88,123.08h-.32L5620.37,346.72h0L4609,1358l-17.19-17.08-6.81-6.86-44.47-44.42L4359.76,1108.6l-6.81-6.87-112.39-112L4155,904l453.86-453.89L4744.67,586l236.51,236.24,183.31-185.34v-355H4927.44V441.12L4609.35,123h-.65l-318.1,318.1L4167.19,564.59,3827.7,904l163.83,163.62h0l13.34,13.35,135.68,135.67,236.4,236.4,232.34,232.35,102.94-102.94,49.39-49.39L5227,1067.75h0l163.67-163.62L5844.5,450.25,5980,585.82,6298.17,904l-453.88,453.86-17.08-17-6.86-6.81-44.41-44.47-180.8-181.06-6.86-6.81L5475.89,989.66l-3.79-3.78-163.61,163.61,67.38,67.11,236.67,236.56,232.07,232.35,102.94-103.21,24.15-24.15,490.57-490.52h0L6625.94,904ZM4510.68,1005.93h81v-81h-81Zm118.88,0h81v-81h-81ZM5942.56,806H5861.5v81h81.06Zm-1350.85,0h-81v81h81Zm118.88,0h-81.05v81h81.05Z"/></svg>