<svg id="Layer_1" data-name="Layer 1" xmlns="http://www.w3.org/2000/svg" xmlns:xlink="http://www.w3.org/1999/xlink" viewBox="0 0 5271.56 1845.82"><defs><style>.cls-1{fill:#fff;}.cls-2{clip-path:url(#clip-path);}</style><clipPath id="clip-path" transform="translate(-33.7 -1017.48)"><path class="cls-1" d="M438.7,1637.84v140.94a533.55,533.55,0,0,0-55.08-3.24c-111.78,0-196,76.14-196,189.54v328.86H33.7v-648H187.6V1735C233,1671.86,302.6,1633,386.86,1633A269.16,269.16,0,0,1,438.7,1637.84Zm758.14,356.4H660.63c8.1,108.54,82.62,184.68,192.78,184.68,84.24,0,152.28-43.74,179.82-111.78h153.9c-38.88,140.94-163.62,239.76-333.72,239.76-200.88,0-351.54-142.56-351.54-337s150.66-337,349.92-337c197.64,0,343.44,139.32,346.68,333.72ZM673.59,1884.08H1030c-29.16-74.52-90.72-121.5-176.58-121.5C765.93,1762.58,701.13,1811.18,673.59,1884.08Zm622.07,317.52c0-56.7,48.6-105.3,105.3-105.3s105.29,48.6,105.29,105.3-48.6,105.3-105.29,105.3S1295.66,2258.3,1295.66,2201.6Zm1061.08-34V2294c-17.83,8.1-38.88,13-56.71,13-77.75,0-134.45-38.88-165.23-102.06-48.6,63.18-136.08,102.06-241.38,102.06-140.94,0-230-71.28-230-184.68S1746,1936,1877.26,1936h234.9v-47c0-81-64.8-126.36-147.42-126.36-84.24,0-147.42,43.74-147.42,121.5h-153.9c0-152.28,128-251.1,301.32-251.1,171.72,0,301.32,105.3,301.32,265.68V2085c0,56.7,24.3,82.62,51.84,82.62Zm-244.62-110.16v-14.58H1922.58c-59.94,0-98.82,29.16-98.82,74.52s42.12,74.52,108.54,74.52c90.72,0,160.38-51.86,179.82-134.48ZM2475,1140.52h153.9V2293.94H2475Zm367.72,0h153.9V2293.94h-153.9Zm955.82,505.42-416.34,1036.8h-162l153.9-377.46-267.3-659.34h163.62l184.68,479.52,178.2-479.52Z"/></clipPath></defs><path class="cls-1" d="M438.7,1637.84v140.94a533.55,533.55,0,0,0-55.08-3.24c-111.78,0-196,76.14-196,189.54v328.86H33.7v-648H187.6V1735C233,1671.86,302.6,1633,386.86,1633A269.16,269.16,0,0,1,438.7,1637.84Zm758.14,356.4H660.63c8.1,108.54,82.62,184.68,192.78,184.68,84.24,0,152.28-43.74,179.82-111.78h153.9c-38.88,140.94-163.62,239.76-333.72,239.76-200.88,0-351.54-142.56-351.54-337s150.66-337,349.92-337c197.64,0,343.44,139.32,346.68,333.72ZM673.59,1884.08H1030c-29.16-74.52-90.72-121.5-176.58-121.5C765.93,1762.58,701.13,1811.18,673.59,1884.08Zm622.07,317.52c0-56.7,48.6-105.3,105.3-105.3s105.29,48.6,105.29,105.3-48.6,105.3-105.29,105.3S1295.66,2258.3,1295.66,2201.6Zm1061.08-34V2294c-17.83,8.1-38.88,13-56.71,13-77.75,0-134.45-38.88-165.23-102.06-48.6,63.18-136.08,102.06-241.38,102.06-140.94,0-230-71.28-230-184.68S1746,1936,1877.26,1936h234.9v-47c0-81-64.8-126.36-147.42-126.36-84.24,0-147.42,43.74-147.42,121.5h-153.9c0-152.28,128-251.1,301.32-251.1,171.72,0,301.32,105.3,301.32,265.68V2085c0,56.7,24.3,82.62,51.84,82.62Zm-244.62-110.16v-14.58H1922.58c-59.94,0-98.82,29.16-98.82,74.52s42.12,74.52,108.54,74.52c90.72,0,160.38-51.86,179.82-134.48ZM2475,1140.52h153.9V2293.94H2475Zm367.72,0h153.9V2293.94h-153.9Zm955.82,505.42-416.34,1036.8h-162l153.9-377.46-267.3-659.34h163.62l184.68,479.52,178.2-479.52Z" transform="translate(-33.7 -1017.48)"/><g class="cls-2"><rect class="cls-1" x="1004.38" width="4267.18" height="1845.82"/></g></svg>